# xmcd
#
# Track frame offsets: 
#        150
#        10821
#        27561
#        41581
#        57525
#        76217
#        92955
#        111382
#        125914
#        141084
#        151623
#        165993
#
# Disc length: 2410 seconds
#
# Revision: 0
# Processed by: cddbd v1.5.2PL0 Copyright (c) Steve Scherf et al.
# Submitted via: ExactAudioCopy v1.0b3
#
DISCID=9b09680c
DTITLE=Richard Clayderman - Cinema Passion, Vol. 2
DYEAR=1900
DGENRE=Classical
TTITLE0=Romeo and Juliet
TTITLE1=I Just Called to Say I Love You
TTITLE2=Unchained Melody
TTITLE3=The Streets of Philadelphia
TTITLE4=I Will Always Love You
TTITLE5=From a Distance
TTITLE6=(Everything I Do) I Do It for You
TTITLE7=Can You Feel the Love Tonight?
TTITLE8=Wind Beneath My Wings
TTITLE9=Love Me Tender
TTITLE10=Someday
TTITLE11=Time After Time
EXTD=
EXTT0=
EXTT1=
EXTT2=
EXTT3=
EXTT4=
EXTT5=
EXTT6=
EXTT7=
EXTT8=
EXTT9=
EXTT10=
EXTT11=
PLAYORDER=
